<svg width="110" height="50" viewBox="0 0 141 89" fill="none" xmlns="http://www.w3.org/2000/svg">
<g id="Frame 4" clip-path="url(#clip0)">
<path id="Linda" d="M35.7812 81C34.3646 81 32.9375 80.6667 31.5 80C30.0625 79.3542 28.5104 78.4271 26.8438 77.2188C25.3229 76.1562 23.8125 74.9896 22.3125 73.7188C18.7917 70.8021 15.5729 68.7396 12.6562 67.5312C10.9688 66.8229 9.15625 66.4688 7.21875 66.4688H6.5C6.375 66.4688 6.125 66.4896 5.75 66.5312L15.2812 22.1875C12.4062 23.375 10.1979 25.1458 8.65625 27.5C7.11458 29.8333 6.34375 32.7083 6.34375 36.125C6.34375 37.4375 6.48958 38.5104 6.78125 39.3438C6.86458 39.6146 6.96875 39.8542 7.09375 40.0625C7.17708 40.2083 7.21875 40.3542 7.21875 40.5C4.90625 40.5 3.21875 40.0312 2.15625 39.0938C0.96875 38.0938 0.375 36.4896 0.375 34.2812C0.375 32.8854 0.677083 31.5104 1.28125 30.1562C1.88542 28.7812 2.73958 27.4583 3.84375 26.1875C4.90625 24.9583 6.15625 23.8229 7.59375 22.7812C9.05208 21.7188 10.6146 20.8021 12.2812 20.0312C15.8229 18.4271 19.3438 17.625 22.8438 17.625C23.6146 17.625 24.4688 17.6771 25.4062 17.7812L15.5625 63.7188C16.5833 63.9479 17.6146 64.2917 18.6562 64.75C19.7188 65.2083 20.9271 65.8021 22.2812 66.5312L25.7812 68.4062C28.4896 69.8854 30.9375 70.9062 33.125 71.4688C34.375 71.8021 35.6875 71.9688 37.0625 71.9688C39 71.9688 40.7917 71.625 42.4375 70.9375C42.0625 74.0625 41.3021 76.5104 40.1562 78.2812C39.5938 79.1562 38.9375 79.8229 38.1875 80.2812C37.4583 80.7604 36.6562 81 35.7812 81ZM34.9375 29.5312C34.25 29.5312 33.5938 29.4062 32.9688 29.1562C32.3438 28.8854 31.8021 28.5208 31.3438 28.0625C30.8854 27.625 30.5208 27.0938 30.25 26.4688C30 25.8438 29.875 25.1875 29.875 24.5C29.875 23.8125 30 23.1562 30.25 22.5312C30.5208 21.9062 30.8854 21.3542 31.3438 20.875C31.8021 20.3958 32.3438 20.0312 32.9688 19.7812C33.5938 19.5104 34.25 19.375 34.9375 19.375C35.625 19.375 36.2812 19.5104 36.9062 19.7812C37.5312 20.0312 38.0833 20.3958 38.5625 20.875C39.0417 21.3542 39.4062 21.9062 39.6562 22.5312C39.9271 23.1562 40.0625 23.8125 40.0625 24.5C40.0625 25.1875 39.9271 25.8438 39.6562 26.4688C39.4062 27.0938 39.0417 27.625 38.5625 28.0625C38.0833 28.5208 37.5312 28.8854 36.9062 29.1562C36.2812 29.4062 35.625 29.5312 34.9375 29.5312ZM30.5938 65.375C28.5521 65.375 26.9375 64.7708 25.75 63.5625C24.4167 62.2292 23.75 60.2812 23.75 57.7188C23.75 56.5104 23.9167 55.1146 24.25 53.5312L28.5938 33H37.8125L33.2188 54.75C33.0521 55.2917 32.9688 55.9792 32.9688 56.8125C32.9688 57.6875 33.1667 58.3021 33.5625 58.6562C33.9792 59.0104 34.6458 59.1875 35.5625 59.1875C36.1875 59.1875 36.7917 59.0521 37.375 58.7812C37.9792 58.4896 38.5312 58.0938 39.0312 57.5938C40.0521 56.5729 40.8229 55.2188 41.3438 53.5312H44.0312C42.8854 56.7604 41.4479 59.3333 39.7188 61.25C38.2604 62.8125 36.6146 63.9375 34.7812 64.625C33.4479 65.125 32.0521 65.375 30.5938 65.375ZM64.4688 65.375C61.8229 65.375 59.8646 64.625 58.5938 63.125C57.4896 61.8333 56.9375 60.1771 56.9375 58.1562C56.9375 57.1979 57.0521 56.0833 57.2812 54.8125C57.5312 53.5417 57.8958 51.9062 58.375 49.9062C58.8542 47.8646 59.2083 46.2396 59.4375 45.0312C59.6875 43.8021 59.8125 42.7396 59.8125 41.8438C59.8125 39.6562 59.0417 38.5625 57.5 38.5625C56.4167 38.5625 55.4167 39.1354 54.5 40.2812C53.7292 41.2604 53.0625 42.6562 52.5 44.4688L48.1562 65H38.9375L45.7188 33H54.9375L54.25 36.3125C55.5 34.9167 56.8438 33.9375 58.2812 33.375C59.3438 32.9583 60.4896 32.75 61.7188 32.75C63.8854 32.75 65.5938 33.3125 66.8438 34.4375C68.1771 35.6667 68.8438 37.5104 68.8438 39.9688C68.8438 41.4479 68.5729 43.375 68.0312 45.75C67.8854 46.4375 67.6458 47.4688 67.3125 48.8438C66.7083 51.1562 66.2708 53 66 54.375C65.8333 55.25 65.75 55.9583 65.75 56.5C65.75 57.3542 65.9375 58.0208 66.3125 58.5C66.7083 58.9583 67.375 59.1875 68.3125 59.1875C69.5833 59.1875 70.6562 58.6667 71.5312 57.625C72.1979 56.8333 72.9167 55.4688 73.6875 53.5312H76.375C74.7917 58.2188 72.7917 61.5 70.375 63.375C68.6667 64.7083 66.6979 65.375 64.4688 65.375ZM81.375 65.375C78.9375 65.375 76.9688 64.6146 75.4688 63.0938C73.7188 61.3021 72.8438 58.6354 72.8438 55.0938C72.8438 53.5938 73 52.0104 73.3125 50.3438C73.6042 48.6771 74.0417 47.0312 74.625 45.4062C75.9583 41.7396 77.7812 38.7812 80.0938 36.5312C82.7604 33.9688 85.8333 32.6875 89.3125 32.6875C91.0417 32.6875 92.3333 32.9896 93.1875 33.5938C94.0625 34.1771 94.5 34.9583 94.5 35.9375V36.1875L97.625 21.4688L107.094 20.1875L99.75 54.75C99.5625 55.375 99.4688 56.0625 99.4688 56.8125C99.4688 57.6875 99.6771 58.3021 100.094 58.6562C100.51 59.0104 101.177 59.1875 102.094 59.1875C103.281 59.1875 104.344 58.6562 105.281 57.5938C106.073 56.6562 106.74 55.3021 107.281 53.5312H109.969C108.844 56.7396 107.458 59.2708 105.812 61.125C104.417 62.6667 102.865 63.7396 101.156 64.3438C99.9271 64.7812 98.5833 65 97.125 65C95.3542 65 93.9271 64.5312 92.8438 63.5938C91.7604 62.6562 91.0938 61.2917 90.8438 59.5C89.6979 61.2292 88.4583 62.5625 87.125 63.5C85.3958 64.75 83.4792 65.375 81.375 65.375ZM85.5312 59.1875C85.9896 59.1875 86.4792 59.0729 87 58.8438C87.5417 58.6146 88.0521 58.2917 88.5312 57.875C89.6562 56.8542 90.4062 55.5208 90.7812 53.875V53.5312L93.9062 38.875C93.7604 38.2917 93.5521 37.8229 93.2812 37.4688C92.8438 36.9271 92.1771 36.6562 91.2812 36.6562C90.4271 36.6562 89.5938 36.9375 88.7812 37.5C87.9896 38.0625 87.2396 38.8438 86.5312 39.8438C85.2812 41.6562 84.25 44.0208 83.4375 46.9375C83.0625 48.2292 82.7812 49.5104 82.5938 50.7812C82.4062 52.0312 82.3125 53.1667 82.3125 54.1875C82.3125 56.3125 82.7083 57.75 83.5 58.5C83.7708 58.7917 84.0729 58.9792 84.4062 59.0625C84.7396 59.1458 85.1146 59.1875 85.5312 59.1875ZM115 65.375C112.562 65.375 110.594 64.6146 109.094 63.0938C107.344 61.3021 106.469 58.6354 106.469 55.0938C106.469 53.5938 106.625 52.0104 106.938 50.3438C107.229 48.6771 107.667 47.0312 108.25 45.4062C109.583 41.7396 111.406 38.7812 113.719 36.5312C116.385 33.9688 119.458 32.6875 122.938 32.6875C124.667 32.6875 125.958 32.9896 126.812 33.5938C127.688 34.1771 128.125 34.9583 128.125 35.9375V36.4062L128.812 33H138.031L133.438 54.75C133.25 55.375 133.156 56.0625 133.156 56.8125C133.156 58.6458 134.031 59.5625 135.781 59.5625C136.948 59.5625 138.01 58.9688 138.969 57.7812C139.781 56.7812 140.448 55.3646 140.969 53.5312H143.656C142.51 56.7812 141.125 59.3542 139.5 61.25C138.125 62.8125 136.573 63.9375 134.844 64.625C133.573 65.125 132.229 65.375 130.812 65.375C129 65.375 127.552 64.8854 126.469 63.9062C125.406 62.9062 124.76 61.4375 124.531 59.5C123.323 61.2083 122.052 62.5417 120.719 63.5C119.01 64.75 117.104 65.375 115 65.375ZM119.156 59.1875C119.635 59.1875 120.135 59.0625 120.656 58.8125C121.198 58.5625 121.719 58.2083 122.219 57.75C123.344 56.6667 124.094 55.2604 124.469 53.5312L127.531 39.0938C127.531 38.8854 127.479 38.6458 127.375 38.375C127.292 38.0833 127.167 37.8125 127 37.5625C126.5 36.9583 125.802 36.6562 124.906 36.6562C124.052 36.6562 123.219 36.9375 122.406 37.5C121.615 38.0625 120.865 38.8438 120.156 39.8438C118.906 41.6562 117.875 44.0208 117.062 46.9375C116.688 48.2292 116.406 49.5104 116.219 50.7812C116.031 52.0312 115.938 53.1667 115.938 54.1875C115.938 56.3125 116.333 57.75 117.125 58.5C117.396 58.7917 117.698 58.9792 118.031 59.0625C118.365 59.1458 118.74 59.1875 119.156 59.1875Z" fill="white"/>
</g>
<defs>
<clipPath id="clip0">
<rect width="141" height="89" fill="white"/>
</clipPath>
</defs>
</svg>
